<svg xmlns="http://www.w3.org/2000/svg" version="1.2" viewBox="150 0.09 500 799.91"><style>.a{fill:#fff}</style><path class="a" d="m525 125h-52.5l50-87.5c5-12.5 2.5-27.5-10-35-12.5-5-27.5-2.5-35 10l-62.5 112.5h-42.5l50-87.5c5-12.5 2.5-27.5-10-35-12.5-5-27.5-2.5-35 10l-62.5 112.5h-40c-70 0-125 55-125 125v225 150c0 22.5 10 42.5 25 55v45c0 42.5 32.5 75 75 75 42.5 0 75-32.5 75-75v-25h150v25c0 42.5 32.5 75 75 75 42.5 0 75-32.5 75-75v-45c15-12.5 25-32.5 25-55v-150-225c0-70-55-125-125-125zm-200 475h-75c-15 0-25-10-25-25 0-15 10-25 25-25h75c15 0 25 10 25 25 0 15-10 25-25 25zm225 0h-75c-15 0-25-10-25-25 0-15 10-25 25-25h75c15 0 25 10 25 25 0 15-10 25-25 25zm50-150h-400v-175h400z"/></svg>